<?xml version="1.0" encoding="UTF-8" standalone="no"?>
<!-- Created with Inkscape (http://www.inkscape.org/) -->

<svg
   xmlns:dc="http://purl.org/dc/elements/1.1/"
   xmlns:cc="http://creativecommons.org/ns#"
   xmlns:rdf="http://www.w3.org/1999/02/22-rdf-syntax-ns#"
   xmlns:svg="http://www.w3.org/2000/svg"
   xmlns="http://www.w3.org/2000/svg"
   xmlns:sodipodi="http://sodipodi.sourceforge.net/DTD/sodipodi-0.dtd"
   xmlns:inkscape="http://www.inkscape.org/namespaces/inkscape"
   id="svg4206"
   version="1.1"
   inkscape:version="0.48.5 r10040"
   width="96"
   height="102"
   sodipodi:docname="ic_transport.svg"
   inkscape:export-filename="/media/Documents/Repos/TextSecure/res/drawable-mdpi/ic_transport_sms_insecure_dark.png"
   inkscape:export-xdpi="30"
   inkscape:export-ydpi="30">
  <metadata
     id="metadata4212">
    <rdf:RDF>
      <cc:Work
         rdf:about="">
        <dc:format>image/svg+xml</dc:format>
        <dc:type
           rdf:resource="http://purl.org/dc/dcmitype/StillImage" />
        <dc:title></dc:title>
      </cc:Work>
    </rdf:RDF>
  </metadata>
  <defs
     id="defs4210" />
  <sodipodi:namedview
     pagecolor="#ffffff"
     bordercolor="#666666"
     borderopacity="1"
     objecttolerance="10"
     gridtolerance="10"
     guidetolerance="10"
     inkscape:pageopacity="0"
     inkscape:pageshadow="2"
     inkscape:window-width="1436"
     inkscape:window-height="881"
     id="namedview4208"
     showgrid="false"
     inkscape:zoom="3.4558824"
     inkscape:cx="41.904261"
     inkscape:cy="33.035344"
     inkscape:window-x="0"
     inkscape:window-y="115"
     inkscape:window-maximized="0"
     inkscape:current-layer="g5112"
     showguides="true"
     inkscape:guide-bbox="true" />
  <g
     inkscape:groupmode="layer"
     id="layer2"
     inkscape:label="SMS Components"
     style="display:none"
     sodipodi:insensitive="true">
    <rect
       style="fill:#64a926;fill-opacity:1;stroke:none"
       id="rect4237"
       width="86.785004"
       height="59"
       x="4"
       y="17"
       rx="10"
       ry="10" />
    <text
       xml:space="preserve"
       style="font-size:40px;font-style:normal;font-weight:normal;line-height:125%;letter-spacing:0px;word-spacing:0px;fill:#ffffff;fill-opacity:1;stroke:none;display:inline;font-family:Sans"
       x="47.314377"
       y="61.060547"
       id="text5341"
       sodipodi:linespacing="125%"><tspan
         sodipodi:role="line"
         id="tspan5343"
         x="47.314377"
         y="61.060547"
         style="font-style:normal;font-variant:normal;font-weight:normal;font-stretch:normal;text-align:center;text-anchor:middle;font-family:Open Sans;-inkscape-font-specification:Open Sans">SMS</tspan></text>
  </g>
  <g
     inkscape:groupmode="layer"
     id="layer6"
     inkscape:label="TS Components"
     style="display:none"
     sodipodi:insensitive="true">
    <path
       inkscape:connector-curvature="0"
       style="fill:#3a7ef2;fill-opacity:1;fill-rule:nonzero;stroke:none"
       d="m 47.394322,8.5626748 c -19.604288,0 -35.49908,15.8911122 -35.49908,35.4920062 0,0.220264 0.0031,0.438276 0.0071,0.657588 -0.0022,0.164617 -0.0035,0.329814 -0.0035,0.494959 0,0.06837 -3.4e-4,0.136766 0,0.205055 -3.4e-4,0.06706 0,0.134368 0,0.201518 0,19.603578 15.891823,35.495542 35.495544,35.495542 0.153154,0 0.30691,-0.0018 0.459606,-0.0035 0.0013,-1.3e-5 0.0022,1.8e-5 0.0035,0 0.151508,-0.0018 0.301488,-0.0031 0.452532,-0.0071 0.01179,-3.42e-4 0.02358,3.37e-4 0.03536,0 0.287884,-0.0076 0.576503,-0.02096 0.862641,-0.03536 0.0083,-4.43e-4 0.01649,4.43e-4 0.02473,0 l 0,7.965284 0,4.408658 c 1.314732,-0.764366 2.628209,-1.573686 3.934919,-2.425292 0.522684,-0.340641 1.046585,-0.68536 1.566184,-1.039411 14.164234,-9.651247 26.988585,-24.228009 28.078249,-40.537039 0.0098,-0.143461 0.02032,-0.287108 0.02824,-0.431323 2.23e-4,-0.0035 -2.24e-4,-0.0071 0,-0.01059 0.0077,-0.14542 0.01524,-0.2922 0.02127,-0.438391 9.5e-5,-0.0022 -9.5e-5,-0.0047 0,-0.0071 0.006,-0.147379 0.0136,-0.293765 0.01765,-0.441928 2.6e-5,-0.0013 -3.4e-5,-0.0022 0,-0.0035 0.0043,-0.149352 0.0052,-0.298844 0.0069,-0.448997 0.0026,-0.150689 0.0034,-0.301572 0.0034,-0.452532 0,-0.06372 4.39e-4,-0.108643 0,-0.190914 4.39e-4,-0.06711 0,-0.134252 0,-0.201519 0,-0.208786 -0.0017,-0.437141 -0.0034,-0.625764 0.0034,-0.189243 0.0034,-0.379253 0.0034,-0.569205 0,-0.08954 -0.0026,-0.179303 -0.0034,-0.268692 3.44e-4,-0.04602 0.0034,-0.09178 0.0034,-0.137877 0,-0.187715 -8.61e-4,-0.375105 -0.0034,-0.562133 0.0034,-0.197113 0.0034,-0.39253 0.0034,-0.590414 0,-19.600912 -15.891393,-35.4920241 -35.495539,-35.4920241 z m 0.180305,14.1876102 c 9.775134,0 17.960606,6.183435 20.067004,14.473978 l -40.130471,0 C 29.61742,28.93372 37.799918,22.750285 47.574627,22.750285 z m -0.180305,26.745399 c 2.257713,0 4.086937,1.832757 4.086937,4.090472 0,1.475254 -1.460124,2.976818 -1.460124,2.976818 -0.270955,0.279012 -0.436977,0.8229 -0.367687,1.205574 l 1.021738,5.617771 c 0.06929,0.382674 -0.19445,0.696474 -0.583347,0.696474 l -5.395039,0 c -0.388896,0 -0.652637,-0.3138 -0.583341,-0.696474 l 1.021733,-5.617771 c 0.06943,-0.382674 -0.09673,-0.926562 -0.367683,-1.205574 0,0 -1.460124,-1.501564 -1.460124,-2.976818 0,-2.257715 1.829221,-4.090472 4.086937,-4.090472 z"
       id="path5564" />
  </g>
  <g
     inkscape:groupmode="layer"
     id="layer1"
     inkscape:label="Padlock Components"
     style="display:none"
     sodipodi:insensitive="true">
    <path
       style="fill:#000000;fill-opacity:1;stroke:none"
       clip-path="none"
       d="m 82,58.03125 c -6.648,0 -12,5.798 -12,13 L 70,78 l 5.15625,0 0,-9.09375 c 0,-3.324 2.676,-6 6,-6 l 2,0 c 3.324,0 6,2.676 6,6 L 89.15625,78 94,78 94,71.03125 c 0,-7.202 -5.352,-13 -12,-13 z"
       id="rect5020"
       inkscape:connector-curvature="0" />
    <rect
       style="opacity:0.36226418;fill:#000000;fill-opacity:1;stroke:none"
       id="rect5055"
       width="6.0042553"
       height="0.36170211"
       x="92.595741"
       y="82.468086"
       rx="6"
       ry="0.36170211" />
    <rect
       style="fill:#000000;fill-opacity:1;stroke:none"
       id="rect5009"
       width="34"
       height="25"
       x="46"
       y="76"
       rx="3"
       ry="3" />
  </g>
  <g
     style="display:none"
     inkscape:label="Padlock Locked"
     id="g5121"
     inkscape:groupmode="layer"
     sodipodi:insensitive="true">
    <path
       style="fill:#777777;fill-opacity:1;stroke:none"
       clip-path="none"
       d="m 63,58.03125 c -6.648,0 -12,5.798 -12,13 L 51,76 49,76 c -1.662,0 -3,1.338 -3,3 l 0,19 c 0,1.662 1.338,3 3,3 l 28,0 c 1.662,0 3,-1.338 3,-3 l 0,-19 c 0,-1.662 -1.338,-3 -3,-3 l -2,0 0,-4.96875 c 0,-7.202 -5.352,-13 -12,-13 z m -0.84375,4.875 2,0 c 3.324,0 6,2.676 6,6 l 0,7.09375 -14,0 0,-7.09375 c 0,-3.324 2.676,-6 6,-6 z"
       id="path5123"
       inkscape:connector-curvature="0" />
    <rect
       ry="0.36170211"
       rx="6"
       y="82.468086"
       x="92.595741"
       height="0.36170211"
       width="6.0042553"
       id="rect5125"
       style="opacity:0.36226418;fill:#000000;fill-opacity:1;stroke:none" />
  </g>
  <g
     style="display:none"
     inkscape:label="SMS Secure"
     id="g5366"
     inkscape:groupmode="layer"
     sodipodi:insensitive="true">
    <path
       style="fill:#64a926;fill-opacity:1;stroke:none"
       d="M 14,17 C 8.46,17 4,21.46 4,27 l 0,39 c 0,5.54 4.46,10 10,10 l 30.0625,0 C 44.953952,74.571554 46.34988,73.496976 48,73 l 0,-4.34375 c 0,-7.756 6.244,-14 14,-14 l 2,0 c 7.756,0 14,6.244 14,14 l 0,4.3125 c 1.634571,0.487349 3.011289,1.565568 3.90625,2.96875 5.009716,-0.552711 8.875,-4.775712 8.875,-9.9375 l 0,-39 c 0,-5.54 -4.46,-10 -10,-10 L 14,17 z"
       id="rect5368"
       inkscape:connector-curvature="0" />
    <path
       style="font-size:40px;font-style:normal;font-weight:normal;line-height:125%;letter-spacing:0px;word-spacing:0px;fill:#ffffff;fill-opacity:1;stroke:none;display:inline;font-family:Sans"
       d="m 18.8125,32.09375 c -2.721363,2.9e-5 -4.908861,0.666695 -6.5625,1.96875 -1.653649,1.302109 -2.5000024,3.049503 -2.5,5.25 -2.4e-6,2.096374 0.585934,3.791685 1.71875,5.09375 1.145828,1.302099 3.031243,2.424493 5.6875,3.375 1.90103,0.677096 3.325508,1.278658 4.25,1.8125 0.937485,0.533865 1.578109,1.11199 1.96875,1.75 0.403629,0.625009 0.624983,1.447925 0.625,2.4375 -1.7e-5,1.497402 -0.567724,2.65365 -1.6875,3.5 -1.119806,0.833336 -2.786471,1.250003 -5,1.25 -1.354175,3e-6 -2.713549,-0.119789 -4.09375,-0.40625 C 11.838537,57.838545 10.546872,57.432295 9.375,56.9375 l 0,3.21875 c 1.822913,0.872396 4.427077,1.28125 7.8125,1.28125 3.124987,0 5.614568,-0.6875 7.4375,-2.09375 1.822898,-1.406247 2.71873,-3.361974 2.71875,-5.875 -2e-5,-1.953115 -0.554707,-3.557281 -1.6875,-4.78125 C 24.536441,47.463555 22.463527,46.317723 19.46875,45.25 17.684885,44.611996 16.372387,44.0521 15.5,43.53125 c -0.859382,-0.533836 -1.479173,-1.124981 -1.84375,-1.75 -0.364589,-0.638001 -0.531256,-1.447896 -0.53125,-2.4375 -6e-6,-1.341123 0.47916,-2.401018 1.46875,-3.15625 0.989575,-0.755183 2.367178,-1.124974 4.125,-1.125 2.226549,2.6e-5 4.518213,0.510442 6.875,1.5 L 26.625,33.65625 c -2.382829,-1.041638 -4.973973,-1.562471 -7.8125,-1.5625 z m 58.03125,0 c -2.721363,2.9e-5 -4.908861,0.666695 -6.5625,1.96875 -1.653649,1.302109 -2.468752,3.049503 -2.46875,5.25 -2e-6,2.096374 0.554684,3.791685 1.6875,5.09375 1.145828,1.302099 3.062493,2.424493 5.71875,3.375 1.90103,0.677096 3.294258,1.278658 4.21875,1.8125 0.937485,0.533865 1.609359,1.11199 2,1.75 0.403629,0.625009 0.593733,1.447925 0.59375,2.4375 -1.7e-5,1.497402 -0.536474,2.65365 -1.65625,3.5 -1.119806,0.833336 -2.786471,1.250003 -5,1.25 -0.584476,10e-7 -1.191926,-0.0091 -1.78125,-0.0625 0.918305,0.866841 1.749791,1.849701 2.40625,2.9375 2.764973,-0.10746 4.985287,-0.773482 6.65625,-2.0625 1.822898,-1.406247 2.74998,-3.361974 2.75,-5.875 -2e-5,-1.953115 -0.585957,-3.557281 -1.71875,-4.78125 -1.119809,-1.223945 -3.161473,-2.369777 -6.15625,-3.4375 -1.783865,-0.638004 -3.127613,-1.1979 -4,-1.71875 -0.859382,-0.533836 -1.447923,-1.124981 -1.8125,-1.75 -0.364589,-0.638001 -0.562506,-1.447896 -0.5625,-2.4375 -6e-6,-1.341123 0.51041,-2.401018 1.5,-3.15625 0.989575,-0.755183 2.367178,-1.124974 4.125,-1.125 2.226549,2.6e-5 4.518213,0.510442 6.875,1.5 l 1.03125,-2.90625 c -2.382829,-1.041638 -5.005223,-1.562471 -7.84375,-1.5625 z M 33.1875,32.5 l 0,28.5625 3.0625,0 0,-18.15625 C 36.249993,40.145854 36.182285,37.755232 36,35.75 l 0.15625,0 9.6875,25.3125 2.65625,0 9.78125,-25.28125 0.15625,0 c -0.182321,2.473981 -0.281279,4.765646 -0.28125,6.875 l 0,12.53125 c 1.052938,-0.296954 2.172768,-0.45756 3.3125,-0.5 l 0,-22.1875 -4.96875,0 -9.09375,23.5625 -0.15625,0 -9.0625,-23.5625 -5,0 z"
       id="text5341-8"
       inkscape:connector-curvature="0" />
  </g>
  <g
     inkscape:groupmode="layer"
     id="layer3"
     inkscape:label="Padlock Locked Mask"
     style="display:none"
     sodipodi:insensitive="true">
    <rect
       style="fill:#000000;fill-opacity:0.42016811;stroke:none"
       id="rect5375"
       width="30"
       height="42.35918"
       x="48"
       y="54.64082"
       ry="14"
       rx="14" />
    <rect
       style="fill:#345513;fill-opacity:0.71008408;stroke:none"
       id="rect5383"
       width="40"
       height="30"
       x="43"
       y="72.702133"
       ry="7"
       rx="7" />
  </g>
  <g
     style="display:none"
     inkscape:label="Padlock Unlocked"
     id="g5112"
     inkscape:groupmode="layer"
     sodipodi:insensitive="true">
    <path
       style="fill:#666666;fill-opacity:0.43137255;stroke:none"
       clip-path="none"
       d="m 82,58.03125 c -6.648,0 -12,5.798 -12,13 L 70,76 49,76 c -1.662,0 -3,1.338 -3,3 l 0,19 c 0,1.662 1.338,3 3,3 l 28,0 c 1.662,0 3,-1.338 3,-3 l 0,-19 c 0,-1.662 -1.338,-3 -3,-3 l -1.84375,0 0,-7.09375 c 0,-3.324 2.676,-6 6,-6 l 2,0 c 3.324,0 6,2.676 6,6 L 89.15625,78 94,78 94,71.03125 c 0,-7.202 -5.352,-13 -12,-13 z"
       id="path5114"
       inkscape:connector-curvature="0" />
  </g>
  <g
     inkscape:groupmode="layer"
     id="g8850"
     inkscape:label="Padlock Unlocked Dark"
     style="display:inline"
     sodipodi:insensitive="true">
    <path
       inkscape:connector-curvature="0"
       id="path8852"
       d="m 82,58.03125 c -6.648,0 -12,5.798 -12,13 L 70,76 49,76 c -1.662,0 -3,1.338 -3,3 l 0,19 c 0,1.662 1.338,3 3,3 l 28,0 c 1.662,0 3,-1.338 3,-3 l 0,-19 c 0,-1.662 -1.338,-3 -3,-3 l -1.84375,0 0,-7.09375 c 0,-3.324 2.676,-6 6,-6 l 2,0 c 3.324,0 6,2.676 6,6 L 89.15625,78 94,78 94,71.03125 c 0,-7.202 -5.352,-13 -12,-13 z"
       clip-path="none"
       style="fill:#ffffff;fill-opacity:0.36862745;stroke:none" />
  </g>
  <g
     style="display:inline"
     inkscape:label="SMS Unsecure"
     id="g5486"
     inkscape:groupmode="layer"
     sodipodi:insensitive="true">
    <path
       style="fill:#64a926;fill-opacity:1;stroke:none"
       d="M 14,17 C 8.46,17 4,21.46 4,27 l 0,39 c 0,5.54 4.46,10 10,10 l 30.0625,0 C 45.296818,74.022152 47.487245,72.6875 50,72.6875 l 17,0 0,-4.03125 c 0,-7.756 6.244,-14 14,-14 l 2,0 c 2.883726,0 5.558777,0.860631 7.78125,2.34375 l 0,-30 c 0,-5.54 -4.46,-10 -10,-10 L 14,17 z"
       id="rect5488"
       inkscape:connector-curvature="0" />
    <path
       style="font-size:40px;font-style:normal;font-weight:normal;line-height:125%;letter-spacing:0px;word-spacing:0px;fill:#ffffff;fill-opacity:1;stroke:none;display:inline;font-family:Sans"
       d="m 18.8125,32.09375 c -2.721363,2.9e-5 -4.908861,0.666695 -6.5625,1.96875 -1.653649,1.302109 -2.5000024,3.049503 -2.5,5.25 -2.4e-6,2.096374 0.585934,3.791685 1.71875,5.09375 1.145828,1.302099 3.031243,2.424493 5.6875,3.375 1.90103,0.677096 3.325508,1.278658 4.25,1.8125 0.937485,0.533865 1.578109,1.11199 1.96875,1.75 0.403629,0.625009 0.624983,1.447925 0.625,2.4375 -1.7e-5,1.497402 -0.567724,2.65365 -1.6875,3.5 -1.119806,0.833336 -2.786471,1.250003 -5,1.25 -1.354175,3e-6 -2.713549,-0.119789 -4.09375,-0.40625 C 11.838537,57.838545 10.546872,57.432295 9.375,56.9375 l 0,3.21875 c 1.822913,0.872396 4.427077,1.28125 7.8125,1.28125 3.124987,0 5.614568,-0.6875 7.4375,-2.09375 1.822898,-1.406247 2.71873,-3.361974 2.71875,-5.875 -2e-5,-1.953115 -0.554707,-3.557281 -1.6875,-4.78125 C 24.536441,47.463555 22.463527,46.317723 19.46875,45.25 17.684885,44.611996 16.372387,44.0521 15.5,43.53125 c -0.859382,-0.533836 -1.479173,-1.124981 -1.84375,-1.75 -0.364589,-0.638001 -0.531256,-1.447896 -0.53125,-2.4375 -6e-6,-1.341123 0.47916,-2.401018 1.46875,-3.15625 0.989575,-0.755183 2.367178,-1.124974 4.125,-1.125 2.226549,2.6e-5 4.518213,0.510442 6.875,1.5 L 26.625,33.65625 c -2.382829,-1.041638 -4.973973,-1.562471 -7.8125,-1.5625 z m 58.03125,0 c -2.721363,2.9e-5 -4.908861,0.666695 -6.5625,1.96875 -1.653649,1.302109 -2.468752,3.049503 -2.46875,5.25 -2e-6,2.096374 0.554684,3.791685 1.6875,5.09375 1.145828,1.302099 3.062493,2.424493 5.71875,3.375 1.90103,0.677096 3.294258,1.278658 4.21875,1.8125 0.937485,0.533865 1.609359,1.11199 2,1.75 0.403629,0.625009 0.593733,1.447925 0.59375,2.4375 -3e-6,0.307913 -0.01515,0.594617 -0.0625,0.875 l 1.03125,0 c 0.775273,0 1.540918,0.06745 2.28125,0.1875 0.06712,-0.441439 0.124996,-0.892813 0.125,-1.375 -2e-5,-1.953115 -0.585957,-3.557281 -1.71875,-4.78125 -1.119809,-1.223945 -3.161473,-2.369777 -6.15625,-3.4375 -1.783865,-0.638004 -3.127613,-1.1979 -4,-1.71875 -0.859382,-0.533836 -1.447923,-1.124981 -1.8125,-1.75 -0.364589,-0.638001 -0.562506,-1.447896 -0.5625,-2.4375 -6e-6,-1.341123 0.51041,-2.401018 1.5,-3.15625 0.989575,-0.755183 2.367178,-1.124974 4.125,-1.125 2.226549,2.6e-5 4.518213,0.510442 6.875,1.5 l 1.03125,-2.90625 c -2.382829,-1.041638 -5.005223,-1.562471 -7.84375,-1.5625 z M 33.1875,32.5 l 0,28.5625 3.0625,0 0,-18.15625 C 36.249993,40.145854 36.182285,37.755232 36,35.75 l 0.15625,0 9.6875,25.3125 2.65625,0 9.78125,-25.28125 0.15625,0 c -0.182321,2.473981 -0.281279,4.765646 -0.28125,6.875 l 0,18.40625 3.3125,0 0,-28.5625 -4.96875,0 -9.09375,23.5625 -0.15625,0 -9.0625,-23.5625 -5,0 z m 34.25,24.4375 0,3.21875 c 0.568703,0.272166 1.216721,0.468993 1.9375,0.65625 0.648854,-0.962011 1.450418,-1.823121 2.3125,-2.59375 C 71.540575,58.19145 71.397221,58.15556 71.25,58.125 69.869787,57.838545 68.609372,57.432295 67.4375,56.9375 z"
       id="text5490"
       inkscape:connector-curvature="0" />
  </g>
  <rect
     style="opacity:0.36226418;fill:#ffffff;fill-opacity:0;stroke:none"
     id="rect5090"
     width="10.055319"
     height="19.604256"
     x="58.017021"
     y="67.42128"
     rx="3"
     ry="3" />
  <g
     style="display:none"
     inkscape:label="Padlock Unlocked Mask"
     id="g5494"
     inkscape:groupmode="layer"
     sodipodi:insensitive="true">
    <rect
       rx="14"
       ry="14"
       y="54.64082"
       x="67"
       height="42.35918"
       width="30"
       id="rect5496"
       style="fill:#000000;fill-opacity:0.42016811;stroke:none" />
    <rect
       rx="7"
       ry="7"
       y="72.702133"
       x="43"
       height="30"
       width="40"
       id="rect5498"
       style="fill:#345513;fill-opacity:0.71008408;stroke:none" />
  </g>
</svg>
